<?xml version="1.0" standalone="no"?>
<!DOCTYPE svg PUBLIC "-//W3C//DTD SVG 20010904//EN"
 "http://www.w3.org/TR/2001/REC-SVG-20010904/DTD/svg10.dtd">
<svg version="1.0" xmlns="http://www.w3.org/2000/svg"
 width="1196.000000pt" height="1196.000000pt" viewBox="0 0 1196.000000 1196.000000"
 preserveAspectRatio="xMidYMid meet">

<g transform="translate(0.000000,1196.000000) scale(0.100000,-0.100000)"
fill="#000000" stroke="none">
<path d="M2591 9955 c-75 -17 -134 -54 -170 -109 -25 -38 -26 -45 -26 -181 0
-140 0 -142 30 -191 34 -54 154 -152 259 -211 11 -6 36 -28 55 -47 31 -32 34
-41 38 -108 5 -89 -9 -122 -52 -126 -54 -4 -60 7 -65 125 l-5 108 -129 3 -128
3 3 -123 c4 -112 6 -127 31 -168 52 -89 145 -132 288 -134 107 -1 175 17 246
67 66 46 79 86 79 247 0 142 -9 184 -48 237 -25 34 -130 123 -145 123 -5 0
-15 7 -22 15 -6 7 -35 27 -63 43 -29 16 -64 42 -79 57 -25 25 -28 35 -28 99 0
79 9 96 51 96 38 0 48 -18 51 -96 l3 -69 134 -3 134 -3 -6 92 c-8 121 -33 172
-104 215 -85 50 -210 65 -332 39z"/>
<path d="M3872 9383 l3 -568 138 -3 137 -3 0 196 c0 107 4 195 9 195 7 0 52
-189 77 -320 13 -72 12 -71 147 -68 88 2 121 6 120 15 -11 55 -38 162 -73 288
-60 220 -67 255 -57 295 6 19 29 98 53 175 24 77 44 143 44 148 0 4 -50 6
-111 5 l-112 -3 -39 -122 c-21 -68 -43 -123 -48 -123 -6 0 -10 89 -10 230 l0
230 -140 0 -140 0 2 -567z"/>
<path d="M4552 9383 l3 -568 135 0 135 0 5 376 c5 394 7 409 50 409 43 0 45
-14 48 -412 l3 -379 132 3 132 3 3 325 c2 179 0 368 -4 420 -6 95 -6 95 -48
136 -34 34 -50 43 -92 49 -70 9 -138 -3 -180 -31 -19 -13 -37 -24 -39 -24 -3
0 -5 59 -5 130 l0 130 -140 0 -140 0 2 -567z"/>
<path d="M5749 9943 c0 -5 -1 -260 -1 -568 l0 -560 123 0 124 0 5 365 c3 201
8 358 12 350 4 -8 16 -87 28 -175 12 -88 31 -225 42 -305 12 -80 24 -165 27
-190 l6 -45 85 0 85 0 17 115 c10 63 22 153 28 200 18 140 38 301 46 365 l8
60 7 -85 c3 -47 6 -211 8 -365 1 -154 5 -283 10 -288 4 -4 59 -6 122 -5 l114
3 3 568 2 567 -189 0 -189 0 -5 -62 c-2 -35 -14 -133 -26 -218 -12 -85 -24
-175 -27 -200 -10 -80 -23 -22 -75 333 l-21 147 -184 0 c-101 0 -184 -3 -185
-7z"/>
<path d="M8010 9380 l0 -570 135 0 135 0 0 195 c0 114 4 195 9 195 5 0 12 -8
15 -17 7 -24 56 -257 65 -311 5 -24 12 -47 18 -53 6 -6 60 -8 129 -7 l119 3
-3 30 c-1 17 -13 68 -27 115 -36 127 -82 298 -96 358 -14 58 -10 86 43 247 44
138 48 151 48 163 0 17 -219 17 -224 0 -67 -218 -98 -288 -94 -206 1 18 1 122
0 231 l-2 197 -135 0 -135 0 0 -570z"/>
<path d="M9440 9790 l0 -70 -30 0 -31 0 3 -67 c3 -66 4 -68 31 -71 l27 -3 1
-267 c0 -147 4 -302 7 -344 7 -68 11 -80 39 -106 36 -35 94 -46 233 -47 l85 0
3 73 3 72 -34 0 c-62 0 -62 2 -62 324 l0 291 40 5 40 5 3 68 3 67 -39 0 c-47
0 -52 9 -52 86 l0 54 -135 0 -135 0 0 -70z"/>
<path d="M3337 9740 c-54 -10 -121 -49 -156 -92 -29 -37 -51 -122 -51 -205 l0
-63 130 0 130 0 0 91 c0 50 5 99 10 110 14 26 56 25 70 -2 18 -32 24 -122 11
-161 -12 -35 -7 -33 -218 -124 -83 -35 -108 -59 -121 -114 -17 -73 -14 -215 6
-275 35 -103 173 -145 276 -84 19 11 38 29 41 40 11 34 35 23 35 -16 l0 -35
131 0 130 0 -4 378 c-2 257 -7 389 -16 414 -14 44 -59 91 -113 119 -46 23
-209 34 -291 19z m152 -612 c-1 -157 -5 -172 -47 -176 -27 -3 -34 1 -42 23
-13 34 -13 140 0 187 10 33 61 88 83 88 4 0 7 -55 6 -122z"/>
<path d="M6965 9741 c-55 -10 -99 -35 -144 -82 -46 -46 -61 -97 -61 -204 l0
-76 128 3 127 3 3 94 c3 97 11 121 42 121 35 0 53 -36 54 -108 0 -96 -10 -108
-137 -160 -58 -24 -126 -56 -151 -72 -60 -38 -69 -71 -65 -232 4 -111 7 -128
28 -159 61 -89 211 -101 289 -23 19 19 38 34 42 34 5 0 10 -15 12 -32 l3 -33
128 -3 127 -3 0 328 c-1 366 -8 458 -42 506 -52 75 -103 96 -236 102 -59 2
-125 0 -147 -4z m153 -623 c-3 -73 -8 -141 -13 -150 -8 -21 -55 -24 -73 -6 -8
8 -12 47 -12 110 l0 98 36 40 c62 68 67 60 62 -92z"/>
<path d="M7883 9739 c-18 -5 -52 -32 -79 -62 l-47 -52 6 58 6 57 -140 0 -139
0 2 -462 3 -463 135 0 135 0 5 272 5 272 29 30 c22 23 39 31 75 33 l46 3 3
163 c1 89 -1 162 -5 161 -5 0 -22 -5 -40 -10z"/>
<path d="M8899 9741 c-52 -11 -124 -56 -155 -96 -47 -63 -54 -107 -54 -370 0
-282 7 -318 73 -389 57 -63 130 -89 252 -90 116 -1 181 21 237 82 63 68 79
116 76 219 l-3 88 -125 0 -125 0 -5 -101 c-6 -112 -16 -134 -61 -134 -42 0
-49 28 -49 181 l0 129 186 0 186 0 -4 138 c-3 126 -6 142 -31 194 -30 61 -66
97 -129 129 -43 22 -204 34 -269 20z m138 -153 c12 -16 25 -150 17 -172 -4
-11 -19 -16 -50 -16 l-44 0 0 82 c0 62 4 86 17 100 19 21 46 23 60 6z"/>
<path d="M5294 9323 c3 -21 5 -62 5 -90 l1 -53 180 0 180 0 0 90 0 90 -185 0
-186 0 5 -37z"/>
<path d="M5853 8375 c-114 -25 -207 -88 -274 -186 -66 -97 -83 -156 -83 -289
-1 -112 0 -117 35 -191 40 -82 122 -176 176 -198 47 -19 100 -145 71 -169 -7
-5 -67 -15 -133 -21 -269 -25 -513 -76 -745 -156 -379 -132 -651 -274 -955
-499 -122 -91 -195 -155 -373 -330 l-163 -161 -423 -3 c-370 -2 -425 -5 -430
-18 -3 -8 -13 -45 -21 -81 -24 -104 -46 -97 360 -101 190 -2 345 -5 345 -7 0
-10 -156 -253 -184 -288 l-31 -39 -732 2 c-504 0 -739 -3 -753 -10 -28 -15
-50 -62 -50 -109 0 -54 7 -67 45 -91 33 -20 45 -21 707 -20 528 0 672 -2 670
-12 -4 -15 -33 -81 -79 -176 l-34 -73 -412 3 -412 3 -12 -80 c-14 -92 -11
-113 24 -126 13 -5 183 -9 384 -9 281 0 359 -3 359 -12 0 -7 -11 -53 -23 -103
l-23 -90 -90 -6 c-49 -4 -153 -7 -230 -8 -107 -1 -144 -4 -153 -15 -6 -7 -14
-49 -18 -93 -5 -72 -4 -81 13 -88 11 -5 107 -11 214 -13 107 -2 199 -7 203
-12 5 -4 1 -84 -9 -178 -14 -139 -14 -174 -4 -187 9 -11 34 -15 104 -15 141 0
128 -12 166 168 68 326 112 479 211 730 48 122 172 377 208 430 10 15 39 61
65 102 164 261 410 547 662 766 104 91 296 236 422 319 117 76 375 208 517
265 55 22 149 60 209 85 60 25 111 43 114 40 7 -6 9 -5 -68 -45 -36 -18 -101
-56 -145 -85 -44 -28 -102 -64 -130 -79 -91 -52 -328 -217 -438 -305 -129
-103 -350 -326 -468 -471 -356 -439 -586 -958 -694 -1567 -26 -146 -46 -305
-41 -320 5 -13 52 -14 334 -8 304 7 5032 -11 5187 -19 39 -3 81 -7 95 -9 14
-3 118 -8 233 -11 l207 -5 0 47 c0 53 -23 279 -40 392 -60 400 -211 832 -399
1142 -168 277 -310 459 -530 679 -262 262 -425 386 -756 573 -226 128 -525
243 -830 319 -168 42 -295 63 -475 77 -137 11 -160 19 -160 58 0 7 53 66 118
130 158 157 192 230 192 406 -1 162 -114 347 -256 419 -86 44 -251 58 -371 32z
m222 -165 c94 -32 171 -99 208 -180 15 -34 21 -66 21 -130 1 -77 -2 -92 -32
-153 -54 -110 -153 -176 -287 -193 -138 -17 -301 122 -336 286 -9 41 -9 70 1
122 18 104 75 173 193 235 75 40 144 43 232 13z"/>
<path d="M2598 4053 c0 -4 -2 -48 -2 -98 l-1 -90 -463 -3 -463 -2 -19 -46
c-25 -58 -25 -85 0 -134 l20 -40 480 0 480 0 6 -27 c4 -16 15 -59 25 -97 10
-38 16 -73 12 -79 -4 -6 -60 -7 -159 -3 -162 7 -273 -4 -295 -30 -12 -14 -7
-111 7 -148 12 -31 51 -36 293 -36 264 0 249 4 286 -70 48 -95 199 -306 255
-355 12 -11 49 -53 82 -93 33 -40 65 -72 72 -70 6 2 46 41 87 88 183 206 375
309 633 340 176 21 391 -19 544 -102 119 -63 160 -94 258 -192 164 -165 242
-337 268 -596 l11 -115 55 -7 c342 -41 1165 -53 1665 -23 156 9 155 9 155 60
0 82 31 266 57 338 60 167 157 307 287 416 154 129 293 192 483 220 310 47
637 -73 862 -316 45 -48 94 -107 109 -130 15 -24 30 -43 33 -43 4 0 18 17 32
38 15 20 61 68 103 106 158 144 266 290 375 511 74 150 118 294 139 455 14
102 18 355 7 367 -11 10 -6776 17 -6779 6z"/>
<path d="M3885 2843 c-270 -57 -485 -258 -577 -537 -13 -39 -22 -101 -25 -171
-5 -93 -2 -124 17 -200 39 -158 113 -281 239 -398 72 -66 155 -114 266 -153
76 -27 88 -29 245 -28 183 1 213 7 364 79 61 29 96 55 170 129 81 81 100 106
145 197 65 130 86 235 78 384 -12 214 -85 368 -245 516 -179 166 -433 235
-677 182z"/>
<path d="M7715 2824 c-11 -3 -47 -12 -81 -20 -72 -17 -173 -64 -229 -107 -177
-136 -305 -382 -304 -587 0 -115 42 -279 101 -390 27 -52 153 -183 218 -227
233 -157 504 -174 765 -48 296 143 464 501 386 825 -58 244 -266 463 -506 535
-59 18 -303 31 -350 19z"/>
</g>
</svg>
